<svg width="162" height="48" viewBox="0 0 162 48" fill="none" xmlns="http://www.w3.org/2000/svg">
<rect width="162" height="48" fill="#1E1E1E"/>
<g id="Landing">
<rect width="1440" height="5286" transform="translate(-100 -520)" fill="white"/>
<g id="Frame 10510">
<g id="Download Badge / App Store Badge" clip-path="url(#clip0_0_1)" filter="url(#filter0_d_0_1)">
<g id="Group">
<g id="Group_2">
<path id="Vector" d="M149.099 2.63003e-05H12.908C12.4115 2.63003e-05 11.921 2.63004e-05 11.4259 0.0024263C11.0115 0.0048263 10.6003 0.0117983 10.1819 0.0176663C9.2728 0.0271485 8.36589 0.0980378 7.46899 0.229718C6.57336 0.364265 5.70578 0.617925 4.8956 0.982118C4.08641 1.34939 3.34704 1.82663 2.70429 2.39651C2.05817 2.96479 1.51958 3.62165 1.10923 4.34182C0.697744 5.06056 0.412419 5.83075 0.263109 6.6258C0.112379 7.41985 0.0312704 8.22305 0.0205099 9.0282C0.00794675 9.39612 0.00662003 9.76527 0 10.1332V37.8703C0.00662003 38.2429 0.00794675 38.6039 0.0205099 38.9766C0.0312737 39.7817 0.112383 40.5849 0.263109 41.3789C0.412007 42.1744 0.697348 42.9451 1.10923 43.6641C1.51939 44.3819 2.05806 45.0361 2.70429 45.6012C3.3446 46.1736 4.08445 46.6512 4.8956 47.0157C5.70577 47.3808 6.57326 47.636 7.46899 47.7726C8.36604 47.9033 9.27286 47.9742 10.1819 47.9848C10.6003 47.9929 11.0115 47.9976 11.4259 47.9976C11.921 48 12.4115 48 12.908 48H149.099C149.586 48 150.08 48 150.567 47.9976C150.979 47.9976 151.402 47.9929 151.815 47.9848C152.722 47.9747 153.627 47.9038 154.522 47.7726C155.421 47.635 156.292 47.3799 157.106 47.0157C157.916 46.651 158.655 46.1734 159.295 45.6012C159.94 45.0339 160.48 44.3802 160.895 43.6641C161.304 42.9445 161.586 42.174 161.733 41.3789C161.884 40.5848 161.968 39.7818 161.984 38.9766C161.989 38.6039 161.989 38.2429 161.989 37.8703C162 37.4344 162 37.0008 162 36.5578V11.4434C162 11.0039 162 10.568 161.989 10.1332C161.989 9.76527 161.989 9.39612 161.984 9.02815C161.968 8.22293 161.884 7.41991 161.733 6.62575C161.586 5.83116 161.303 5.06103 160.895 4.34177C160.059 2.89826 158.734 1.72326 157.106 0.98201C156.292 0.618707 155.421 0.365115 154.522 0.22961C153.627 0.0973496 152.722 0.0264356 151.815 0.0174983C151.402 0.0116423 150.979 0.0046103 150.567 0.0022703C150.08 -0.0001297 149.586 -0.0001297 149.099 -0.0001297V2.63003e-05Z" fill="#A6A6A6"/>
<path id="Vector_2" d="M11.3162 46.9536C10.903 46.9536 10.4998 46.9489 10.0899 46.9408C9.24064 46.931 8.3934 46.8655 7.55508 46.745C6.7734 46.6259 6.01615 46.4042 5.30833 46.0874C4.607 45.7732 3.96733 45.3612 3.41382 44.8672C2.8523 44.379 2.38481 43.8128 2.02988 43.1911C1.67103 42.5652 1.42269 41.8944 1.2935 41.202C1.15399 40.458 1.07851 39.7057 1.06771 38.9515C1.05911 38.6984 1.04785 37.8556 1.04785 37.8556V10.1291C1.04785 10.1291 1.05984 9.29926 1.06777 9.05545C1.07811 8.30251 1.15316 7.55136 1.29225 6.8085C1.42168 6.11417 1.67022 5.44143 2.02925 4.81356C2.38288 4.1922 2.84778 3.62559 3.40591 3.13567C3.96342 2.64109 4.60514 2.22699 5.30767 1.90845C6.01386 1.59264 6.76967 1.37256 7.54978 1.25558C8.39085 1.13384 9.24104 1.06801 10.0932 1.05867L11.3169 1.04401H150.684L151.922 1.05926C152.767 1.06814 153.609 1.13337 154.443 1.25441C155.231 1.37285 155.994 1.59447 156.709 1.91196C158.116 2.55391 159.261 3.56954 159.984 4.81649C160.337 5.44003 160.582 6.10728 160.709 6.7956C160.85 7.54456 160.929 8.30162 160.945 9.06073C160.949 9.40064 160.949 9.76576 160.949 10.1291C160.96 10.5792 160.96 11.0076 160.96 11.4395V36.5592C160.96 36.9953 160.96 37.4207 160.949 37.8497C160.949 38.24 160.949 38.5976 160.944 38.9656C160.928 39.7111 160.851 40.4547 160.712 41.1902C160.586 41.8877 160.339 42.5637 159.98 43.1947C159.622 43.8097 159.158 44.371 158.602 44.8579C158.048 45.3545 157.408 45.7689 156.705 46.0851C155.992 46.4044 155.23 46.6268 154.443 46.745C153.604 46.8662 152.757 46.9316 151.908 46.9408C151.511 46.9489 151.095 46.9536 150.691 46.9536L149.221 46.956L11.3162 46.9536Z" fill="#333333"/>
</g>
<g id="&#60;Group&#62;">
<g id="&#60;Group&#62;_2">
<g id="&#60;Group&#62;_3">
<path id="&#60;Path&#62;" d="M39.3569 24.3608C39.3698 23.3592 39.6358 22.3772 40.1303 21.506C40.6247 20.6349 41.3314 19.903 42.1847 19.3783C41.6427 18.6042 40.9275 17.967 40.0961 17.5176C39.2647 17.0681 38.34 16.8187 37.3954 16.7891C35.3803 16.5776 33.4267 17.9949 32.3999 17.9949C31.3531 17.9949 29.7721 16.8101 28.0697 16.8452C26.9685 16.8807 25.8952 17.201 24.9546 17.7746C24.0139 18.3483 23.2379 19.1558 22.7022 20.1186C20.3814 24.1367 22.1125 30.042 24.3356 33.2899C25.4479 34.8803 26.7478 36.6569 28.4488 36.5939C30.1132 36.5248 30.7349 35.5325 32.744 35.5325C34.7346 35.5325 35.3178 36.5939 37.0532 36.5538C38.8393 36.5248 39.9646 34.9563 41.0379 33.3508C41.837 32.2176 42.452 30.9651 42.86 29.6398C41.8223 29.2009 40.9368 28.4663 40.3139 27.5276C39.6909 26.5888 39.3581 25.4875 39.3569 24.3608V24.3608Z" fill="white"/>
<path id="&#60;Path&#62;_2" d="M36.079 14.6531C37.0528 13.484 37.5326 11.9814 37.4164 10.4643C35.9286 10.6206 34.5543 11.3317 33.5673 12.4559C33.0847 13.0051 32.7151 13.644 32.4796 14.3361C32.2441 15.0282 32.1474 15.76 32.1948 16.4895C32.939 16.4972 33.6752 16.3359 34.348 16.0178C35.0208 15.6997 35.6127 15.2331 36.079 14.6531Z" fill="white"/>
</g>
</g>
<g id="Group_3">
<path id="Vector_3" d="M60.3968 32.5676H54.7167L53.3526 36.5953H50.9468L56.3269 21.6937H58.8265L64.2065 36.5953H61.7597L60.3968 32.5676ZM55.305 30.709H59.8074L57.5878 24.1723H57.5257L55.305 30.709Z" fill="white"/>
<path id="Vector_4" d="M75.8253 31.1637C75.8253 34.5398 74.0183 36.709 71.2913 36.709C70.6006 36.7451 69.9136 36.586 69.309 36.2498C68.7045 35.9137 68.2068 35.414 67.873 34.8082H67.8214V40.1894H65.5913V25.7309H67.7499V27.5379H67.791C68.1401 26.9349 68.6462 26.4379 69.2553 26.0997C69.8645 25.7615 70.5539 25.5947 71.2503 25.6172C74.0077 25.6172 75.8253 27.7969 75.8253 31.1637ZM73.5331 31.1637C73.5331 28.9641 72.3964 27.518 70.662 27.518C68.9581 27.518 67.812 28.9945 67.812 31.1637C67.812 33.3527 68.9581 34.8188 70.662 34.8188C72.3964 34.8188 73.5331 33.3832 73.5331 31.1637Z" fill="white"/>
<path id="Vector_5" d="M87.7833 31.1637C87.7833 34.5399 85.9763 36.709 83.2494 36.709C82.5586 36.7451 81.8716 36.586 81.267 36.2498C80.6625 35.9137 80.1648 35.414 79.831 34.8082H79.7794V40.1894H77.5493V25.7309H79.7079V27.5379H79.7489C80.0981 26.9349 80.6041 26.4379 81.2133 26.0997C81.8225 25.7615 82.5119 25.5947 83.2083 25.6172C85.9658 25.6172 87.7833 27.7969 87.7833 31.1637ZM85.4911 31.1637C85.4911 28.9641 84.3544 27.518 82.62 27.518C80.9161 27.518 79.77 28.9945 79.77 31.1637C79.77 33.3527 80.9161 34.8188 82.62 34.8188C84.3544 34.8188 85.4912 33.3832 85.4912 31.1637H85.4911Z" fill="white"/>
<path id="Vector_6" d="M95.6862 32.4434C95.8514 33.9211 97.287 34.8914 99.2487 34.8914C101.128 34.8914 102.481 33.921 102.481 32.5886C102.481 31.432 101.665 30.7394 99.7338 30.2648L97.8026 29.7995C95.0663 29.1386 93.7959 27.8589 93.7959 25.7824C93.7959 23.2113 96.0366 21.4452 99.2182 21.4452C102.367 21.4452 104.526 23.2113 104.598 25.7824H102.347C102.212 24.2952 100.983 23.3976 99.1865 23.3976C97.39 23.3976 96.1608 24.3058 96.1608 25.6277C96.1608 26.6812 96.9459 27.3011 98.8666 27.7757L100.508 28.1788C103.566 28.9019 104.836 30.13 104.836 32.3097C104.836 35.0975 102.615 36.8436 99.0834 36.8436C95.7787 36.8436 93.5475 35.1386 93.4033 32.4432L95.6862 32.4434Z" fill="white"/>
<path id="Vector_7" d="M109.649 23.1598V25.7309H111.715V27.4969H109.649V33.4863C109.649 34.4168 110.063 34.8504 110.971 34.8504C111.217 34.8461 111.461 34.8289 111.705 34.7988V36.5543C111.297 36.6306 110.882 36.6651 110.466 36.6574C108.267 36.6574 107.409 35.8312 107.409 33.7242V27.4969H105.829V25.7309H107.409V23.1598H109.649Z" fill="white"/>
<path id="Vector_8" d="M112.912 31.1637C112.912 27.7453 114.925 25.5973 118.065 25.5973C121.215 25.5973 123.219 27.7453 123.219 31.1637C123.219 34.5914 121.225 36.7301 118.065 36.7301C114.905 36.7301 112.912 34.5914 112.912 31.1637ZM120.946 31.1637C120.946 28.8188 119.872 27.4348 118.065 27.4348C116.258 27.4348 115.184 28.8293 115.184 31.1637C115.184 33.518 116.258 34.8914 118.065 34.8914C119.872 34.8914 120.946 33.518 120.946 31.1637H120.946Z" fill="white"/>
<path id="Vector_9" d="M125.058 25.7309H127.185V27.58H127.236C127.38 27.0025 127.718 26.4921 128.194 26.1346C128.67 25.7772 129.255 25.5945 129.849 25.6172C130.106 25.6163 130.363 25.6442 130.614 25.7004V27.7863C130.289 27.6872 129.951 27.6416 129.612 27.6515C129.288 27.6384 128.965 27.6955 128.665 27.819C128.365 27.9425 128.095 28.1293 127.875 28.3668C127.654 28.6043 127.487 28.8867 127.386 29.1947C127.284 29.5027 127.251 29.829 127.288 30.1511V36.5953H125.058L125.058 25.7309Z" fill="white"/>
<path id="Vector_10" d="M140.895 33.4043C140.595 35.3766 138.674 36.7301 136.217 36.7301C133.056 36.7301 131.095 34.6125 131.095 31.2152C131.095 27.8074 133.067 25.5973 136.123 25.5973C139.129 25.5973 141.019 27.6621 141.019 30.9562V31.7203H133.346V31.8551C133.31 32.2549 133.361 32.6577 133.493 33.0367C133.625 33.4157 133.836 33.7623 134.113 34.0533C134.389 34.3444 134.724 34.5733 135.096 34.7249C135.468 34.8764 135.867 34.9472 136.269 34.9324C136.796 34.9818 137.324 34.8597 137.776 34.5844C138.229 34.3091 138.58 33.8952 138.778 33.4043L140.895 33.4043ZM133.356 30.1617H138.788C138.808 29.8022 138.754 29.4424 138.628 29.105C138.502 28.7675 138.308 28.4597 138.058 28.2008C137.808 27.9418 137.507 27.7374 137.174 27.6004C136.841 27.4633 136.483 27.3966 136.123 27.4043C135.76 27.4021 135.4 27.4719 135.064 27.6096C134.728 27.7473 134.423 27.9502 134.165 28.2065C133.908 28.4629 133.704 28.7676 133.565 29.1032C133.427 29.4388 133.356 29.7986 133.356 30.1617V30.1617Z" fill="white"/>
</g>
<g id="Group_4">
<path id="Vector_11" d="M55.0253 10.4772C55.4928 10.4437 55.962 10.5143 56.3989 10.684C56.8358 10.8537 57.2297 11.1183 57.552 11.4586C57.8743 11.799 58.117 12.2066 58.2627 12.6522C58.4084 13.0977 58.4534 13.57 58.3944 14.035C58.3944 16.3225 57.1581 17.6374 55.0253 17.6374H52.439V10.4772H55.0253ZM53.5511 16.6248H54.9011C55.2352 16.6448 55.5695 16.59 55.8797 16.4645C56.19 16.3389 56.4683 16.1458 56.6945 15.8991C56.9207 15.6524 57.0891 15.3584 57.1873 15.0385C57.2855 14.7185 57.3112 14.3807 57.2624 14.0496C57.3076 13.7198 57.2794 13.3841 57.1796 13.0665C57.0799 12.7489 56.9111 12.4573 56.6855 12.2126C56.4598 11.9678 56.1828 11.7761 55.8743 11.651C55.5658 11.5259 55.2334 11.4706 54.9011 11.4891H53.5511V16.6248Z" fill="white"/>
<path id="Vector_12" d="M59.6507 14.9332C59.6168 14.5781 59.6574 14.2198 59.77 13.8813C59.8826 13.5429 60.0647 13.2317 60.3046 12.9677C60.5446 12.7037 60.837 12.4928 61.1632 12.3484C61.4895 12.2041 61.8422 12.1296 62.199 12.1296C62.5557 12.1296 62.9085 12.2041 63.2347 12.3484C63.5609 12.4928 63.8534 12.7037 64.0933 12.9677C64.3332 13.2317 64.5153 13.5429 64.628 13.8813C64.7406 14.2198 64.7812 14.5781 64.7472 14.9332C64.7818 15.2887 64.7417 15.6475 64.6294 15.9865C64.5171 16.3255 64.3351 16.6373 64.0951 16.9018C63.8551 17.1663 63.5624 17.3777 63.2359 17.5223C62.9093 17.6669 62.5561 17.7417 62.199 17.7417C61.8418 17.7417 61.4886 17.6669 61.1621 17.5223C60.8355 17.3777 60.5429 17.1663 60.3029 16.9018C60.0629 16.6373 59.8809 16.3255 59.7686 15.9865C59.6562 15.6475 59.6161 15.2887 59.6507 14.9332V14.9332ZM63.6503 14.9332C63.6503 13.7619 63.1242 13.077 62.2007 13.077C61.2738 13.077 60.7523 13.7619 60.7523 14.9332C60.7523 16.1139 61.2738 16.7936 62.2007 16.7936C63.1242 16.7936 63.6503 16.1092 63.6503 14.9332H63.6503Z" fill="white"/>
<path id="Vector_13" d="M71.5223 17.6373H70.416L69.2992 13.6576H69.2149L68.1027 17.6373H67.007L65.5176 12.2338H66.5992L67.5672 16.357H67.6469L68.7578 12.2338H69.7809L70.8918 16.357H70.9762L71.9395 12.2338H73.0059L71.5223 17.6373Z" fill="white"/>
<path id="Vector_14" d="M74.2583 12.2338H75.2849V13.0922H75.3646C75.4997 12.7839 75.7277 12.5254 76.0168 12.3529C76.3058 12.1803 76.6415 12.1022 76.9771 12.1295C77.24 12.1097 77.504 12.1494 77.7495 12.2455C77.995 12.3416 78.2158 12.4917 78.3954 12.6847C78.575 12.8777 78.7089 13.1087 78.7871 13.3605C78.8654 13.6123 78.886 13.8784 78.8474 14.1392V17.6372H77.781V14.407C77.781 13.5387 77.4036 13.1068 76.6149 13.1068C76.4364 13.0985 76.2582 13.1289 76.0926 13.1959C75.9269 13.2629 75.7777 13.3649 75.6551 13.495C75.5326 13.6251 75.4396 13.7801 75.3826 13.9494C75.3255 14.1188 75.3058 14.2985 75.3247 14.4762V17.6373H74.2583L74.2583 12.2338Z" fill="white"/>
<path id="Vector_15" d="M80.5469 10.1244H81.6133V17.6373H80.5469V10.1244Z" fill="white"/>
<path id="Vector_16" d="M83.0955 14.9332C83.0616 14.5781 83.1022 14.2198 83.2149 13.8813C83.3275 13.5428 83.5096 13.2316 83.7496 12.9676C83.9895 12.7036 84.282 12.4927 84.6083 12.3484C84.9345 12.204 85.2873 12.1295 85.6441 12.1295C86.0008 12.1295 86.3536 12.204 86.6799 12.3484C87.0061 12.4927 87.2986 12.7036 87.5385 12.9676C87.7785 13.2316 87.9606 13.5428 88.0733 13.8813C88.1859 14.2198 88.2265 14.5781 88.1926 14.9332C88.2272 15.2887 88.187 15.6475 88.0746 15.9865C87.9623 16.3255 87.7803 16.6373 87.5403 16.9018C87.3002 17.1663 87.0075 17.3776 86.681 17.5223C86.3544 17.6669 86.0012 17.7416 85.6441 17.7416C85.2869 17.7416 84.9337 17.6669 84.6071 17.5223C84.2806 17.3776 83.9879 17.1663 83.7479 16.9018C83.5078 16.6373 83.3258 16.3255 83.2135 15.9865C83.1011 15.6475 83.0609 15.2887 83.0955 14.9332V14.9332ZM87.0951 14.9332C87.0951 13.7619 86.5689 13.077 85.6455 13.077C84.7186 13.077 84.1971 13.7619 84.1971 14.9332C84.1971 16.1139 84.7186 16.7936 85.6455 16.7936C86.569 16.7936 87.0951 16.1092 87.0951 14.9332H87.0951Z" fill="white"/>
<path id="Vector_17" d="M89.3149 16.1092C89.3149 15.1365 90.0392 14.5758 91.3247 14.4961L92.7884 14.4117V13.9453C92.7884 13.3746 92.411 13.0524 91.6821 13.0524C91.0868 13.0524 90.6743 13.2709 90.556 13.6529H89.5235C89.6325 12.7248 90.5056 12.1295 91.7313 12.1295C93.086 12.1295 93.8501 12.8039 93.8501 13.9453V17.6373H92.8235V16.8779H92.7392C92.5679 17.1503 92.3274 17.3724 92.0423 17.5214C91.7571 17.6705 91.4375 17.7412 91.1161 17.7263C90.8893 17.7499 90.66 17.7257 90.4431 17.6553C90.2262 17.5849 90.0264 17.4698 89.8567 17.3174C89.687 17.165 89.5511 16.9788 89.4578 16.7707C89.3645 16.5626 89.3158 16.3373 89.3149 16.1092V16.1092ZM92.7884 15.6475V15.1957L91.4688 15.2801C90.7247 15.3299 90.3872 15.583 90.3872 16.0594C90.3872 16.5457 90.8091 16.8287 91.3892 16.8287C91.5592 16.8459 91.7309 16.8288 91.8941 16.7782C92.0573 16.7277 92.2087 16.6449 92.3392 16.5347C92.4697 16.4245 92.5768 16.2892 92.654 16.1367C92.7311 15.9843 92.7768 15.8179 92.7884 15.6475V15.6475Z" fill="white"/>
<path id="Vector_18" d="M95.252 14.9332C95.252 13.2258 96.1297 12.1441 97.4949 12.1441C97.8326 12.1286 98.1678 12.2095 98.4612 12.3773C98.7546 12.5452 98.9942 12.7931 99.1519 13.0921H99.2316V10.1244H100.298V17.6373H99.2762V16.7836H99.1918C99.0219 17.0806 98.7739 17.3254 98.4748 17.4916C98.1757 17.6578 97.8369 17.7389 97.4949 17.7263C96.1203 17.7264 95.252 16.6447 95.252 14.9332ZM96.3536 14.9332C96.3536 16.0793 96.8938 16.769 97.7973 16.769C98.6961 16.769 99.2516 16.0694 99.2516 14.9379C99.2516 13.8117 98.6903 13.1022 97.7973 13.1022C96.8996 13.1022 96.3535 13.7965 96.3535 14.9332H96.3536Z" fill="white"/>
<path id="Vector_19" d="M104.71 14.9332C104.676 14.5781 104.717 14.2198 104.83 13.8813C104.942 13.5429 105.124 13.2317 105.364 12.9677C105.604 12.7037 105.897 12.4928 106.223 12.3484C106.549 12.2041 106.902 12.1296 107.259 12.1296C107.615 12.1296 107.968 12.2041 108.294 12.3484C108.62 12.4928 108.913 12.7037 109.153 12.9677C109.393 13.2317 109.575 13.5429 109.688 13.8813C109.8 14.2198 109.841 14.5781 109.807 14.9332C109.841 15.2887 109.801 15.6475 109.689 15.9865C109.577 16.3255 109.395 16.6373 109.155 16.9018C108.915 17.1663 108.622 17.3777 108.295 17.5223C107.969 17.6669 107.616 17.7417 107.259 17.7417C106.901 17.7417 106.548 17.6669 106.222 17.5223C105.895 17.3777 105.602 17.1663 105.362 16.9018C105.122 16.6373 104.94 16.3255 104.828 15.9865C104.716 15.6475 104.676 15.2887 104.71 14.9332V14.9332ZM108.71 14.9332C108.71 13.7619 108.184 13.077 107.26 13.077C106.333 13.077 105.812 13.7619 105.812 14.9332C105.812 16.1139 106.333 16.7936 107.26 16.7936C108.184 16.7936 108.71 16.1092 108.71 14.9332Z" fill="white"/>
<path id="Vector_20" d="M111.237 12.2338H112.264V13.0922H112.344C112.479 12.7839 112.707 12.5254 112.996 12.3529C113.285 12.1803 113.621 12.1022 113.956 12.1295C114.219 12.1097 114.483 12.1494 114.728 12.2455C114.974 12.3416 115.195 12.4917 115.374 12.6847C115.554 12.8777 115.688 13.1087 115.766 13.3605C115.844 13.6123 115.865 13.8784 115.826 14.1392V17.6372H114.76V14.407C114.76 13.5387 114.383 13.1068 113.594 13.1068C113.415 13.0985 113.237 13.1289 113.072 13.1959C112.906 13.2629 112.757 13.3649 112.634 13.495C112.512 13.6251 112.419 13.7801 112.362 13.9494C112.305 14.1188 112.285 14.2985 112.304 14.4762V17.6373H111.237V12.2338Z" fill="white"/>
<path id="Vector_21" d="M121.852 10.8885V12.2584H123.023V13.1566H121.852V15.9352C121.852 16.5012 122.085 16.749 122.616 16.749C122.752 16.7486 122.888 16.7404 123.023 16.7244V17.6127C122.831 17.647 122.637 17.6652 122.443 17.6672C121.257 17.6672 120.785 17.25 120.785 16.2082V13.1566H119.927V12.2584H120.785V10.8885H121.852Z" fill="white"/>
<path id="Vector_22" d="M124.479 10.1244H125.537V13.1021H125.621C125.763 12.791 125.997 12.5311 126.292 12.3578C126.587 12.1846 126.928 12.1065 127.268 12.1342C127.53 12.1199 127.792 12.1636 128.034 12.2621C128.277 12.3605 128.495 12.5113 128.673 12.7037C128.85 12.8961 128.984 13.1254 129.063 13.3752C129.141 13.6249 129.164 13.889 129.129 14.1486V17.6373H128.062V14.4117C128.062 13.5486 127.66 13.1115 126.906 13.1115C126.723 13.0965 126.539 13.1217 126.366 13.1853C126.194 13.249 126.037 13.3496 125.908 13.4801C125.778 13.6106 125.679 13.7678 125.616 13.9408C125.554 14.1137 125.53 14.2982 125.546 14.4814V17.6373H124.48L124.479 10.1244Z" fill="white"/>
<path id="Vector_23" d="M135.347 16.1783C135.202 16.6722 134.889 17.0994 134.461 17.3851C134.033 17.6709 133.518 17.7971 133.006 17.7416C132.65 17.751 132.296 17.6828 131.969 17.5418C131.642 17.4007 131.35 17.1902 131.112 16.9249C130.875 16.6595 130.698 16.3456 130.594 16.0051C130.49 15.6645 130.461 15.3053 130.51 14.9525C130.462 14.5987 130.492 14.2388 130.595 13.8972C130.699 13.5556 130.875 13.2402 131.111 12.9725C131.348 12.7049 131.639 12.4911 131.965 12.3456C132.291 12.2002 132.644 12.1265 133.001 12.1295C134.505 12.1295 135.412 13.1567 135.412 14.8535V15.2256H131.596V15.2854C131.579 15.4837 131.604 15.6833 131.669 15.8714C131.734 16.0595 131.838 16.2319 131.973 16.3777C132.109 16.5234 132.273 16.6392 132.456 16.7177C132.639 16.7962 132.836 16.8356 133.035 16.8334C133.29 16.864 133.549 16.8181 133.778 16.7014C134.007 16.5848 134.196 16.4027 134.321 16.1783L135.347 16.1783ZM131.596 14.4369H134.325C134.339 14.2556 134.314 14.0734 134.253 13.9021C134.192 13.7309 134.096 13.5743 133.97 13.4425C133.845 13.3106 133.694 13.2065 133.526 13.1367C133.358 13.0669 133.177 13.033 132.995 13.0371C132.811 13.0348 132.628 13.0694 132.457 13.139C132.286 13.2085 132.131 13.3115 132.001 13.442C131.87 13.5724 131.767 13.7277 131.698 13.8986C131.628 14.0694 131.594 14.2525 131.596 14.4369H131.596Z" fill="white"/>
</g>
</g>
</g>
</g>
<g id="Download Badge / Google Play Badge" clip-path="url(#clip1_0_1)" filter="url(#filter1_d_0_1)">
</g>
</g>
</g>
<defs>
<filter id="filter0_d_0_1" x="-20" y="-12" width="202" height="88" filterUnits="userSpaceOnUse" color-interpolation-filters="sRGB">
<feFlood flood-opacity="0" result="BackgroundImageFix"/>
<feColorMatrix in="SourceAlpha" type="matrix" values="0 0 0 0 0 0 0 0 0 0 0 0 0 0 0 0 0 0 127 0" result="hardAlpha"/>
<feOffset dy="8"/>
<feGaussianBlur stdDeviation="10"/>
<feComposite in2="hardAlpha" operator="out"/>
<feColorMatrix type="matrix" values="0 0 0 0 0.121569 0 0 0 0 0.121569 0 0 0 0 0.121569 0 0 0 0.16 0"/>
<feBlend mode="normal" in2="BackgroundImageFix" result="effect1_dropShadow_0_1"/>
<feBlend mode="normal" in="SourceGraphic" in2="effect1_dropShadow_0_1" result="shape"/>
</filter>
<filter id="filter1_d_0_1" x="158" y="-12" width="201.999" height="88" filterUnits="userSpaceOnUse" color-interpolation-filters="sRGB">
<feFlood flood-opacity="0" result="BackgroundImageFix"/>
<feColorMatrix in="SourceAlpha" type="matrix" values="0 0 0 0 0 0 0 0 0 0 0 0 0 0 0 0 0 0 127 0" result="hardAlpha"/>
<feOffset dy="8"/>
<feGaussianBlur stdDeviation="10"/>
<feComposite in2="hardAlpha" operator="out"/>
<feColorMatrix type="matrix" values="0 0 0 0 0.121569 0 0 0 0 0.121569 0 0 0 0 0.121569 0 0 0 0.16 0"/>
<feBlend mode="normal" in2="BackgroundImageFix" result="effect1_dropShadow_0_1"/>
<feBlend mode="normal" in="SourceGraphic" in2="effect1_dropShadow_0_1" result="shape"/>
</filter>
<clipPath id="clip0_0_1">
<rect width="162" height="48" fill="white"/>
</clipPath>
<clipPath id="clip1_0_1">
<rect width="161.999" height="48" fill="white" transform="translate(178)"/>
</clipPath>
</defs>
</svg>
