<svg width="162" height="48" viewBox="0 0 162 48" fill="none" xmlns="http://www.w3.org/2000/svg">
<g id="Layer 2">
<g id="artwork">
<path id="Vector" d="M155.999 0H5.99997C2.68628 0 0 2.68628 0 5.99997V41.9998C0 45.3135 2.68628 47.9998 5.99997 47.9998H155.999C159.313 47.9998 161.999 45.3135 161.999 41.9998V5.99997C161.999 2.68628 159.313 0 155.999 0Z" fill="#333333"/>
<path id="Vector_2" d="M155.999 0.959954C157.335 0.961497 158.617 1.49303 159.561 2.43793C160.506 3.38282 161.038 4.66393 161.039 6.00017V42C161.038 43.3362 160.506 44.6173 159.561 45.5622C158.617 46.5071 157.335 47.0386 155.999 47.0402H5.99997C4.66372 47.0387 3.38264 46.5071 2.43779 45.5622C1.49293 44.6173 0.961472 43.3362 0.959995 42V6.00017C0.96145 4.66391 1.4929 3.38279 2.43776 2.43789C3.38262 1.49299 4.66371 0.961472 5.99997 0.959954H155.999ZM155.999 0.000198364H5.99997C4.41011 0.00485206 2.8867 0.638484 1.76249 1.76269C0.638286 2.8869 0.00465369 4.41031 0 6.00017L0 42C0.00465369 43.5898 0.638286 45.1133 1.76249 46.2375C2.8867 47.3617 4.41011 47.9953 5.99997 48H155.999C157.589 47.9953 159.112 47.3617 160.237 46.2375C161.361 45.1133 161.995 43.5898 161.999 42V6.00017C161.995 4.41031 161.361 2.8869 160.237 1.76269C159.112 0.638484 157.589 0.00485206 155.999 0.000198364V0.000198364Z" fill="#A6A6A6"/>
<path id="Vector_3" d="M56.9016 12.2919C56.9234 12.7322 56.8554 13.1724 56.7016 13.5856C56.5479 13.9988 56.3117 14.3764 56.0074 14.6954C55.6663 15.0491 55.2544 15.3268 54.7986 15.5104C54.3429 15.6939 53.8535 15.7792 53.3625 15.7606C52.8683 15.765 52.3783 15.6706 51.9212 15.483C51.464 15.2953 51.049 15.0181 50.7005 14.6678C50.3521 14.3174 50.0771 13.901 49.8919 13.4428C49.7067 12.9847 49.6149 12.4942 49.622 12.0001C49.615 11.5059 49.7068 11.0154 49.892 10.5573C50.0772 10.0991 50.3522 9.68265 50.7006 9.33226C51.0491 8.98187 51.4641 8.70465 51.9212 8.5169C52.3783 8.32914 52.8683 8.23463 53.3625 8.23892C53.8705 8.23739 54.3735 8.34011 54.8403 8.54072C55.2738 8.71645 55.6596 8.99209 55.9664 9.3452L55.3336 9.97856C55.0924 9.6947 54.7892 9.47004 54.4475 9.32193C54.1057 9.17381 53.7345 9.10619 53.3625 9.12428C52.988 9.12234 52.6169 9.19601 52.2716 9.34086C51.9262 9.48571 51.6137 9.69877 51.3526 9.96729C51.0915 10.2358 50.8874 10.5542 50.7523 10.9035C50.6172 11.2528 50.554 11.6258 50.5665 12.0001C50.5575 12.5607 50.7153 13.1114 51.0197 13.5822C51.3242 14.0531 51.7616 14.4229 52.2765 14.6449C52.7914 14.8668 53.3606 14.9308 53.912 14.8288C54.4633 14.7268 54.972 14.4634 55.3734 14.072C55.7429 13.6739 55.957 13.1563 55.9769 12.6135H53.3625V11.7487H56.8512C56.8842 11.9279 56.9011 12.1097 56.9016 12.2919V12.2919Z" fill="white" stroke="white" stroke-width="0.233333" stroke-miterlimit="10"/>
<path id="Vector_4" d="M62.4329 9.28483H59.1541V11.5676H62.1108V12.4325H59.1541V14.7153H62.4329V15.6H58.2295V8.40008H62.4329V9.28483Z" fill="white" stroke="white" stroke-width="0.233333" stroke-miterlimit="10"/>
<path id="Vector_5" d="M66.3342 15.6H65.4084V9.28483H63.3975V8.40008H68.3451V9.28483H66.3342V15.6Z" fill="white" stroke="white" stroke-width="0.233333" stroke-miterlimit="10"/>
<path id="Vector_6" d="M71.9248 15.6V8.40008H72.8494V15.6H71.9248Z" fill="white" stroke="white" stroke-width="0.233333" stroke-miterlimit="10"/>
<path id="Vector_7" d="M76.9532 15.6H76.0274V9.28483H74.0166V8.40008H78.9642V9.28483H76.9532V15.6Z" fill="white" stroke="white" stroke-width="0.233333" stroke-miterlimit="10"/>
<path id="Vector_8" d="M88.331 14.6696C87.6302 15.3683 86.681 15.7606 85.6914 15.7606C84.7018 15.7606 83.7525 15.3683 83.0517 14.6696C82.705 14.3184 82.4325 13.9011 82.2503 13.4425C82.0681 12.9839 81.98 12.4934 81.9912 12.0001C81.98 11.5067 82.0681 11.0162 82.2503 10.5576C82.4325 10.099 82.705 9.6817 83.0517 9.33055C83.3981 8.98407 83.8094 8.70931 84.2621 8.52199C84.7149 8.33468 85.2001 8.23848 85.69 8.23892C86.1799 8.23935 86.665 8.33641 87.1173 8.52453C87.5697 8.71265 87.9805 8.98814 88.3263 9.33523C88.6733 9.68546 88.9463 10.1018 89.1293 10.5596C89.3123 11.0173 89.4015 11.5072 89.3915 12.0001C89.4024 12.4934 89.3142 12.9838 89.132 13.4424C88.9498 13.9009 88.6774 14.3182 88.331 14.6696V14.6696ZM83.7349 14.0667C84.2539 14.5848 84.9574 14.8759 85.6908 14.8759C86.4242 14.8759 87.1276 14.5848 87.6466 14.0667C87.9128 13.7942 88.1209 13.4706 88.2585 13.1154C88.3961 12.7602 88.4602 12.3807 88.447 12.0001C88.4602 11.6194 88.3961 11.24 88.2585 10.8848C88.1209 10.5296 87.9128 10.2059 87.6466 9.93343C87.1276 9.41528 86.4242 9.12426 85.6908 9.12426C84.9574 9.12426 84.2539 9.41528 83.7349 9.93343C83.4691 10.2061 83.2613 10.5298 83.1239 10.885C82.9866 11.2402 82.9225 11.6195 82.9357 12.0001C82.9225 12.3806 82.9866 12.7599 83.1239 13.1151C83.2613 13.4703 83.4691 13.794 83.7349 14.0667V14.0667Z" fill="white" stroke="white" stroke-width="0.233333" stroke-miterlimit="10"/>
<path id="Vector_9" d="M90.6895 15.6V8.40008H91.8156L95.3148 14.001H95.3547L95.3148 12.6135V8.40008H96.2406V15.6H95.275L91.614 9.72775H91.5742L91.614 11.1153V15.6H90.6895Z" fill="white" stroke="white" stroke-width="0.233333" stroke-miterlimit="10"/>
<path id="Vector_10" d="M81.7626 26.1019C80.754 26.1057 79.7691 26.4083 78.9324 26.9714C78.0956 27.5346 77.4444 28.333 77.0611 29.266C76.6778 30.1989 76.5795 31.2245 76.7786 32.2132C76.9777 33.202 77.4653 34.1096 78.1799 34.8214C78.8944 35.5333 79.8039 36.0174 80.7934 36.2128C81.7829 36.4082 82.8081 36.306 83.7396 35.9191C84.671 35.5322 85.467 34.878 86.027 34.0391C86.5869 33.2002 86.8857 32.2142 86.8857 31.2056C86.8956 30.531 86.7697 29.8613 86.5155 29.2363C86.2613 28.6113 85.884 28.0439 85.4061 27.5677C84.9281 27.0916 84.3592 26.7164 83.7333 26.4646C83.1073 26.2128 82.4372 26.0894 81.7626 26.1019V26.1019ZM81.7626 34.2988C81.1414 34.3431 80.5214 34.1994 79.983 33.8863C79.4447 33.5732 79.0132 33.1054 78.7445 32.5436C78.4758 31.9818 78.3825 31.3521 78.4767 30.7366C78.5709 30.121 78.8483 29.5481 79.2726 29.0924C79.697 28.6366 80.2488 28.3192 80.8561 28.1815C81.4634 28.0437 82.0981 28.092 82.6775 28.32C83.257 28.548 83.7544 28.9452 84.105 29.4599C84.4555 29.9746 84.643 30.5829 84.6431 31.2056C84.6619 31.599 84.6019 31.9922 84.4665 32.3621C84.331 32.7319 84.123 33.0709 83.8546 33.3592C83.5862 33.6474 83.2628 33.879 82.9036 34.0404C82.5443 34.2018 82.1563 34.2896 81.7626 34.2988V34.2988ZM70.5866 26.1019C69.578 26.1057 68.5931 26.4083 67.7563 26.9714C66.9195 27.5345 66.2683 28.3329 65.885 29.2659C65.5017 30.1988 65.4033 31.2244 65.6024 32.2132C65.8015 33.2019 66.2891 34.1095 67.0037 34.8214C67.7182 35.5333 68.6277 36.0174 69.6172 36.2128C70.6067 36.4082 71.6319 36.306 72.5634 35.9191C73.4949 35.5322 74.2908 34.878 74.8508 34.0391C75.4108 33.2002 75.7096 32.2142 75.7096 31.2056C75.7195 30.531 75.5936 29.8613 75.3394 29.2363C75.0852 28.6114 74.7079 28.0439 74.23 27.5678C73.752 27.0916 73.1831 26.7165 72.5572 26.4646C71.9313 26.2128 71.2611 26.0894 70.5866 26.1019V26.1019ZM70.5866 34.2988C69.9654 34.3431 69.3453 34.1994 68.807 33.8863C68.2687 33.5732 67.8371 33.1054 67.5685 32.5436C67.2998 31.9818 67.2065 31.3521 67.3007 30.7366C67.3949 30.121 67.6722 29.5481 68.0966 29.0924C68.521 28.6366 69.0727 28.3192 69.68 28.1815C70.2873 28.0437 70.922 28.092 71.5015 28.32C72.081 28.548 72.5784 28.9452 72.929 29.4599C73.2795 29.9746 73.467 30.5829 73.467 31.2056C73.4859 31.599 73.4259 31.9922 73.2905 32.3621C73.155 32.7319 72.947 33.0709 72.6786 33.3592C72.4102 33.6474 72.0868 33.879 71.7275 34.0404C71.3683 34.2018 70.9803 34.2897 70.5866 34.2988ZM57.2921 27.6679V29.8331H62.4733C62.3985 30.8486 61.983 31.8092 61.2939 32.559C60.7747 33.0882 60.1503 33.5027 59.461 33.7757C58.7717 34.0488 58.0329 34.1743 57.2921 34.1441C55.7777 34.1236 54.3322 33.5077 53.2685 32.4295C52.2049 31.3513 51.6085 29.8977 51.6085 28.3831C51.6085 26.8685 52.2049 25.4149 53.2685 24.3367C54.3322 23.2585 55.7777 22.6426 57.2921 22.622C58.7467 22.603 60.1501 23.1588 61.1973 24.1686L62.7246 22.6414C62.01 21.934 61.1615 21.3764 60.2286 21.0012C59.2958 20.6261 58.2974 20.441 57.2921 20.4568C56.2415 20.4415 55.1983 20.6352 54.2232 21.0267C53.2482 21.4181 52.3606 21.9996 51.6123 22.7371C50.8639 23.4746 50.2696 24.3536 49.864 25.3229C49.4584 26.2921 49.2495 27.3324 49.2495 28.3831C49.2495 29.4338 49.4584 30.4741 49.864 31.4433C50.2696 32.4126 50.8639 33.2916 51.6123 34.0291C52.3606 34.7666 53.2482 35.3481 54.2232 35.7395C55.1983 36.131 56.2415 36.3247 57.2921 36.3094C58.3186 36.352 59.3425 36.1758 60.2957 35.7925C61.249 35.4092 62.1098 34.8276 62.8212 34.0862C64.084 32.7077 64.7572 30.8897 64.6965 29.0211C64.7015 28.5674 64.6626 28.1142 64.5804 27.6679H57.2921ZM111.662 29.3497C111.355 28.4253 110.771 27.6176 109.989 27.0366C109.208 26.4555 108.266 26.1292 107.293 26.1019C106.637 26.106 105.989 26.243 105.387 26.5046C104.786 26.7663 104.244 27.1471 103.794 27.6242C103.344 28.1012 102.996 28.6646 102.77 29.2801C102.544 29.8957 102.445 30.5507 102.479 31.2056C102.464 31.8766 102.585 32.5437 102.834 33.1671C103.082 33.7904 103.454 34.3572 103.927 34.8336C104.4 35.31 104.964 35.6862 105.585 35.9398C106.207 36.1934 106.873 36.3191 107.544 36.3094C108.385 36.3141 109.214 36.1098 109.956 35.715C110.698 35.3203 111.331 34.7473 111.797 34.0476L110.057 32.8876C109.796 33.3205 109.428 33.6782 108.987 33.9256C108.547 34.173 108.049 34.3016 107.544 34.2988C107.024 34.3187 106.51 34.1819 106.069 33.9061C105.628 33.6304 105.279 33.2284 105.069 32.7523L111.894 29.9298L111.662 29.3497ZM104.702 31.051C104.678 30.6796 104.728 30.307 104.85 29.9553C104.972 29.6035 105.162 29.2795 105.411 29.0022C105.659 28.725 105.96 28.5001 106.297 28.3407C106.633 28.1813 106.998 28.0906 107.37 28.0739C107.757 28.0484 108.143 28.1375 108.48 28.33C108.817 28.5225 109.09 28.81 109.265 29.1565L104.702 31.051ZM99.1536 36.0001H101.396V20.9982H99.1536V36.0001ZM95.4804 27.2425H95.4032C95.0622 26.8721 94.6461 26.5787 94.1827 26.382C93.7193 26.1853 93.2192 26.0898 92.7159 26.1019C91.3999 26.1579 90.1563 26.7201 89.2449 27.6711C88.3335 28.6221 87.8247 29.8884 87.8247 31.2057C87.8247 32.5229 88.3335 33.7892 89.2449 34.7402C90.1563 35.6912 91.3999 36.2534 92.7159 36.3094C93.2212 36.3229 93.7233 36.2261 94.1874 36.0257C94.6515 35.8254 95.0664 35.5264 95.4032 35.1495H95.4804V35.8841C95.4804 37.8368 94.4366 38.8806 92.7545 38.8806C92.194 38.8672 91.6501 38.6872 91.1922 38.3636C90.7343 38.04 90.3831 37.5873 90.1834 37.0634L88.2308 37.8754C88.5988 38.7714 89.226 39.5371 90.0319 40.0744C90.8379 40.6117 91.7859 40.8961 92.7545 40.8912C95.3838 40.8912 97.6071 39.3447 97.6071 35.5748V26.4111H95.4804V27.2425ZM92.9093 34.2988C92.1342 34.2331 91.412 33.8788 90.8857 33.3059C90.3594 32.7331 90.0673 31.9836 90.0673 31.2057C90.0673 30.4278 90.3594 29.6782 90.8857 29.1054C91.412 28.5326 92.1342 28.1782 92.9093 28.1125C93.295 28.1313 93.6729 28.2276 94.0205 28.3956C94.3681 28.5636 94.6783 28.7998 94.9327 29.0903C95.1871 29.3807 95.3804 29.7194 95.501 30.0862C95.6217 30.4529 95.6673 30.8402 95.6351 31.2249C95.6653 31.6073 95.618 31.9918 95.4961 32.3555C95.3742 32.7191 95.1803 33.0545 94.9258 33.3414C94.6713 33.6284 94.3616 33.8611 94.0151 34.0256C93.6686 34.1901 93.2925 34.283 92.9093 34.2988V34.2988ZM122.166 20.9985H116.801V36.0001H119.04V30.3164H122.166C122.8 30.3511 123.433 30.2564 124.029 30.0379C124.624 29.8195 125.169 29.4819 125.63 29.0459C126.09 28.6098 126.457 28.0845 126.708 27.5019C126.958 26.9193 127.088 26.2917 127.088 25.6574C127.088 25.0232 126.958 24.3956 126.708 23.813C126.457 23.2304 126.09 22.705 125.63 22.269C125.169 21.833 124.624 21.4954 124.029 21.2769C123.433 21.0585 122.8 20.9637 122.166 20.9985V20.9985ZM122.224 28.2287H119.04V23.0863H122.224C122.566 23.0792 122.906 23.1405 123.225 23.2665C123.543 23.3926 123.833 23.5808 124.077 23.8203C124.322 24.0597 124.516 24.3456 124.648 24.661C124.781 24.9765 124.849 25.3153 124.849 25.6575C124.849 25.9997 124.781 26.3385 124.648 26.6539C124.516 26.9694 124.322 27.2553 124.077 27.4947C123.833 27.7342 123.543 27.9224 123.225 28.0485C122.906 28.1745 122.566 28.2357 122.224 28.2287V28.2287ZM136.062 26.0743C135.245 26.0266 134.432 26.2185 133.722 26.6265C133.012 27.0345 132.437 27.6408 132.067 28.371L134.055 29.2009C134.252 28.8385 134.551 28.5414 134.914 28.346C135.277 28.1506 135.69 28.0653 136.101 28.1007C136.669 28.0453 137.236 28.2173 137.677 28.5791C138.118 28.9408 138.398 29.4629 138.455 30.0307V30.1851C137.736 29.8031 136.934 29.6043 136.12 29.6061C133.978 29.6061 131.797 30.7834 131.797 32.9836C131.818 33.4473 131.932 33.9021 132.131 34.321C132.331 34.7399 132.613 35.1143 132.961 35.4221C133.308 35.73 133.714 35.9648 134.154 36.1129C134.594 36.2609 135.059 36.319 135.522 36.2839C136.085 36.317 136.648 36.1985 137.15 35.9405C137.653 35.6825 138.077 35.2946 138.378 34.8171H138.455V35.9751H140.617V30.2238C140.617 27.5604 138.629 26.0743 136.062 26.0743V26.0743ZM135.792 34.2959C135.059 34.2959 134.036 33.9294 134.036 33.0222C134.036 31.8643 135.309 31.4203 136.41 31.4203C137.124 31.4013 137.831 31.5746 138.455 31.9221C138.373 32.5728 138.058 33.1717 137.568 33.6081C137.079 34.0445 136.448 34.2888 135.792 34.2959V34.2959ZM148.491 26.4024L145.924 32.9064H145.847L143.184 26.4024H140.771L144.766 35.4926L142.489 40.5491H144.824L150.981 26.4024H148.491ZM128.323 36.0001H130.562V20.9985H128.323V36.0001Z" fill="white"/>
<path id="Vector_11" d="M12.5221 9.04568C12.1286 9.51616 11.9299 10.1193 11.9668 10.7315V37.2707C11.9298 37.883 12.1285 38.4862 12.5221 38.9566L12.6109 39.0431L27.4776 24.1765V23.8258L12.6109 8.95856L12.5221 9.04568Z" fill="url(#paint0_linear_78_64)"/>
<path id="Vector_12" d="M32.4328 29.1342L27.4775 24.1765V23.8258L32.434 18.8693L32.5457 18.933L38.417 22.2691C40.0942 23.2219 40.0942 24.781 38.417 25.7344L32.5457 29.0705L32.4328 29.1342Z" fill="url(#paint1_linear_78_64)"/>
<path id="Vector_13" d="M32.5462 29.0699L27.478 24.0012L12.5225 38.9566C12.8642 39.258 13.3006 39.4303 13.756 39.4438C14.2114 39.4573 14.6572 39.311 15.0162 39.0303L32.5462 29.0699Z" fill="url(#paint2_linear_78_64)"/>
<path id="Vector_14" d="M32.5462 18.9324L15.0162 8.97199C14.6572 8.69131 14.2114 8.54502 13.756 8.55848C13.3006 8.57193 12.8642 8.74429 12.5225 9.04567L27.478 24.0012L32.5462 18.9324Z" fill="url(#paint3_linear_78_64)"/>
<path id="Vector_15" opacity="0.2" d="M32.4344 28.9583L15.0162 38.855C14.6711 39.1177 14.2499 39.261 13.8162 39.2633C13.3824 39.2656 12.9597 39.1268 12.6119 38.8678L12.5225 38.9572L12.6113 39.0437L12.6119 39.0431C12.9597 39.3023 13.3824 39.4412 13.8162 39.4389C14.2499 39.4366 14.6711 39.2931 15.0162 39.0303L32.5462 29.0699L32.4344 28.9583Z" fill="#333333"/>
<path id="Vector_16" opacity="0.12" d="M12.5226 38.7819C12.1291 38.3114 11.9304 37.7083 11.9672 37.096V37.2713C11.9304 37.8836 12.1291 38.4867 12.5226 38.9572L12.612 38.8678L12.5226 38.7819Z" fill="#333333"/>
<path id="Vector_17" opacity="0.12" d="M38.4171 25.5584L32.4341 28.9583L32.5458 29.0699L38.4171 25.7338C38.7625 25.5839 39.0614 25.3441 39.2826 25.0395C39.5039 24.7349 39.6394 24.3765 39.6751 24.0017C39.6009 24.3411 39.4485 24.6585 39.2301 24.9288C39.0118 25.199 38.7334 25.4146 38.4171 25.5584V25.5584Z" fill="#333333"/>
<path id="Vector_18" opacity="0.25" d="M15.0159 9.14791L38.4172 22.4438C38.7336 22.5877 39.012 22.8033 39.2304 23.0737C39.4488 23.344 39.6011 23.6616 39.6751 24.0012C39.6397 23.6262 39.5043 23.2677 39.283 22.9629C39.0617 22.6581 38.7627 22.4183 38.4172 22.2685L15.0159 8.97259C13.3388 8.01967 11.9668 8.81119 11.9668 10.7321V10.9075C11.9668 8.98663 13.3388 8.19511 15.0159 9.14791Z" fill="white"/>
</g>
</g>
<defs>
<linearGradient id="paint0_linear_78_64" x1="26.1593" y1="10.4517" x2="6.02047" y2="30.5905" gradientUnits="userSpaceOnUse">
<stop stop-color="#00A0FF"/>
<stop offset="0.00657" stop-color="#00A1FF"/>
<stop offset="0.2601" stop-color="#00BEFF"/>
<stop offset="0.5122" stop-color="#00D2FF"/>
<stop offset="0.7604" stop-color="#00DFFF"/>
<stop offset="1" stop-color="#00E3FF"/>
</linearGradient>
<linearGradient id="paint1_linear_78_64" x1="40.6006" y1="24.0017" x2="11.5645" y2="24.0017" gradientUnits="userSpaceOnUse">
<stop stop-color="#FFE000"/>
<stop offset="0.4087" stop-color="#FFBD00"/>
<stop offset="0.7754" stop-color="#FFA500"/>
<stop offset="1" stop-color="#FF9C00"/>
</linearGradient>
<linearGradient id="paint2_linear_78_64" x1="29.7922" y1="26.7553" x2="2.48244" y2="54.0651" gradientUnits="userSpaceOnUse">
<stop stop-color="#FF3A44"/>
<stop offset="1" stop-color="#C31162"/>
</linearGradient>
<linearGradient id="paint3_linear_78_64" x1="8.7568" y1="0.211534" x2="20.9518" y2="12.4065" gradientUnits="userSpaceOnUse">
<stop stop-color="#32A071"/>
<stop offset="0.0685" stop-color="#2DA771"/>
<stop offset="0.4762" stop-color="#15CF74"/>
<stop offset="0.8009" stop-color="#06E775"/>
<stop offset="1" stop-color="#00F076"/>
</linearGradient>
</defs>
</svg>
