<svg width="44" height="44" viewBox="0 0 44 44" fill="none" xmlns="http://www.w3.org/2000/svg">
<rect x="0.2" y="0.2" width="43.6" height="43.6" rx="21.8" stroke="#A3A3A3" stroke-width="0.4"/>
<path d="M19.2301 32.7501C19.2201 32.7501 19.2101 32.7501 19.1901 32.7501C17.5101 32.7401 16.31 31.2301 15.46 29.9201C13.29 26.5901 12.85 22.4001 14.42 19.9701C15.47 18.3401 17.17 17.3301 18.85 17.3301C19.72 17.3301 20.4001 17.5701 21.0001 17.7901C21.4801 17.9601 21.89 18.1101 22.32 18.1101C22.7 18.1101 23.03 17.9801 23.45 17.8201C24.03 17.6001 24.74 17.3301 25.77 17.3301C27.25 17.3301 28.7701 18.1201 29.8301 19.4601C29.9701 19.6301 30.0201 19.8601 29.9801 20.0701C29.9401 20.2901 29.8001 20.4701 29.6101 20.5801C28.4801 21.2001 27.86 22.3301 27.95 23.6101C28.04 24.9101 28.8401 26.0101 30.0401 26.4601C30.2301 26.5301 30.3901 26.6801 30.4701 26.8701C30.5501 27.0601 30.55 27.2801 30.46 27.4601C30.02 28.4401 29.8001 28.8901 29.2301 29.7701C28.2801 31.2301 27.0801 32.7301 25.4401 32.7501C24.7301 32.7501 24.2501 32.5401 23.8301 32.3401C23.4101 32.1501 23 32.0001 22.35 31.9801C21.65 31.9801 21.28 32.1501 20.85 32.3401C20.41 32.5401 19.9301 32.7501 19.2301 32.7501ZM18.85 18.8301C17.67 18.8301 16.4601 19.5801 15.6801 20.7801C14.6201 22.4201 14.6301 25.8901 16.7201 29.1001C17.3701 30.1001 18.24 31.2401 19.21 31.2501C19.57 31.2401 19.84 31.1401 20.21 30.9801C20.7 30.7601 21.31 30.4901 22.32 30.4801C23.31 30.4601 23.9501 30.7501 24.4401 30.9801C24.8001 31.1501 25.0401 31.2601 25.4101 31.2501C26.3501 31.2401 27.26 30.0201 27.96 28.9601C28.33 28.3901 28.54 28.0301 28.77 27.5201C27.43 26.7301 26.5501 25.3401 26.4401 23.7201C26.3301 22.1901 26.95 20.7601 28.09 19.8101C27.39 19.1901 26.5601 18.8401 25.7601 18.8401C25.0101 18.8401 24.5101 19.0301 23.9801 19.2301C23.4801 19.4201 22.96 19.6201 22.31 19.6201C21.62 19.6201 21.05 19.4101 20.49 19.2201C19.96 19.0101 19.45 18.8301 18.85 18.8301ZM21.82 17.1301C21.79 17.1301 21.7501 17.1301 21.7201 17.1301C21.3701 17.1201 21.0701 16.8601 21.0101 16.5101C20.8001 15.3801 21.2 14.0801 22.07 13.0201C22.87 12.0501 24.1901 11.3301 25.3601 11.2501C25.7701 11.2301 26.1001 11.5001 26.1501 11.8901C26.3201 13.0601 25.9501 14.3401 25.1201 15.4101C24.3101 16.4601 23.02 17.1301 21.82 17.1301ZM24.6501 12.9501C24.1101 13.1701 23.5801 13.5401 23.2301 13.9701C22.9001 14.3701 22.59 14.9301 22.49 15.5101C23.03 15.3301 23.5701 14.9701 23.9401 14.4901C24.1401 14.2401 24.5201 13.6601 24.6501 12.9501Z" fill="#DAA667"/>
</svg>
