<svg width="28" height="28" viewBox="0 0 28 28" fill="none" xmlns="http://www.w3.org/2000/svg">
<rect width="28" height="28" rx="14" fill="#FAEAB1" fill-opacity="0.1"/>
<path d="M16.4301 20.8201C16.2401 20.8201 16.0501 20.7501 15.9001 20.6001C15.6101 20.3101 15.6101 19.8301 15.9001 19.5401L21.4401 14.0001L15.9001 8.46012C15.6101 8.17012 15.6101 7.69012 15.9001 7.40012C16.1901 7.11012 16.6701 7.11012 16.9601 7.40012L23.0301 13.4701C23.3201 13.7601 23.3201 14.2401 23.0301 14.5301L16.9601 20.6001C16.8101 20.7501 16.6201 20.8201 16.4301 20.8201Z" fill="#DAA667"/>
<path d="M22.33 14.75H5.5C5.09 14.75 4.75 14.41 4.75 14C4.75 13.59 5.09 13.25 5.5 13.25H22.33C22.74 13.25 23.08 13.59 23.08 14C23.08 14.41 22.74 14.75 22.33 14.75Z" fill="#DAA667"/>
</svg>
