<svg width="56" height="56" viewBox="0 0 56 56" fill="none" xmlns="http://www.w3.org/2000/svg">
<g id="Chat">
<g id="Iconly/Bold/Chat">
<g id="Chat_2">
<path id="Vector" d="M28.0465 4.66666C41.2998 4.66666 51.3332 15.533 51.3332 27.9649C51.3332 42.3832 39.5732 51.3333 27.9998 51.3333C24.1732 51.3333 19.9265 50.3051 16.5198 48.2954C15.3298 47.571 14.3265 47.0335 13.0432 47.4542L8.32984 48.8563C7.13984 49.2302 6.0665 48.2954 6.4165 47.0335L7.97984 41.799C8.2365 41.0746 8.18984 40.3034 7.8165 39.6959C5.80984 36.0037 4.6665 31.9609 4.6665 28.035C4.6665 15.7433 14.4898 4.66666 28.0465 4.66666ZM38.7098 25.0673C37.0532 25.0673 35.7232 26.3993 35.7232 28.0584C35.7232 29.6942 37.0532 31.0496 38.7098 31.0496C40.3665 31.0496 41.6965 29.6942 41.6965 28.0584C41.6965 26.3993 40.3665 25.0673 38.7098 25.0673ZM27.9532 25.0673C26.3198 25.0439 24.9665 26.3993 24.9665 28.035C24.9665 29.6942 26.2965 31.0262 27.9532 31.0496C29.6098 31.0496 30.9398 29.6942 30.9398 28.0584C30.9398 26.3993 29.6098 25.0673 27.9532 25.0673ZM17.1965 25.0673C15.5398 25.0673 14.2098 26.3993 14.2098 28.0584C14.2098 29.6942 15.5632 31.0496 17.1965 31.0496C18.8532 31.0262 20.1832 29.6942 20.1832 28.0584C20.1832 26.3993 18.8532 25.0673 17.1965 25.0673Z" fill="#FAEAB1"/>
</g>
</g>
</g>
</svg>
