<svg width="44" height="44" viewBox="0 0 44 44" fill="none" xmlns="http://www.w3.org/2000/svg">
<rect x="0.2" y="0.2" width="43.6" height="43.6" rx="21.8" stroke="#A3A3A3" stroke-width="0.4"/>
<path d="M24.75 32.75H20.25V25.5H19.3C18.72 25.5 18.25 25.03 18.25 24.45V22.55C18.25 21.97 18.72 21.5 19.3 21.5H20.25V19C20.25 16.93 21.93 15.25 24 15.25H26.7C27.28 15.25 27.75 15.72 27.75 16.3V18.7C27.75 19.28 27.28 19.75 26.7 19.75H24.75V21.5H26.63C26.95 21.5 27.24 21.64 27.44 21.88C27.64 22.12 27.72 22.44 27.66 22.75L27.28 24.65C27.18 25.14 26.75 25.49 26.25 25.49H24.75V32.75ZM21.75 31.25H23.25V24H25.89L26.09 23H23.26V19.3C23.26 18.72 23.73 18.25 24.31 18.25H26.26V16.75H24C22.76 16.75 21.75 17.76 21.75 19V23H19.75V24H21.75V31.25Z" fill="#DAA667"/>
<path d="M25 32.75H19C13.57 32.75 11.25 30.43 11.25 25V19C11.25 13.57 13.57 11.25 19 11.25H25C30.43 11.25 32.75 13.57 32.75 19V25C32.75 30.43 30.43 32.75 25 32.75ZM19 12.75C14.39 12.75 12.75 14.39 12.75 19V25C12.75 29.61 14.39 31.25 19 31.25H25C29.61 31.25 31.25 29.61 31.25 25V19C31.25 14.39 29.61 12.75 25 12.75H19Z" fill="#DAA667"/>
</svg>
