<svg width="73" height="73" viewBox="0 0 73 73" fill="none" xmlns="http://www.w3.org/2000/svg">
<g id="icons" opacity="0.9">
<g id="vuesax/bold/route-square">
<g id="route-square">
<path id="Ellipse 214" d="M62.6484 37C62.6484 51.3594 51.0078 63 36.6484 63C22.289 63 10.6484 51.3594 10.6484 37C10.6484 22.6406 22.289 11 36.6484 11C51.0078 11 62.6484 22.6406 62.6484 37ZM20.7223 37C20.7223 45.7957 27.8527 52.9261 36.6484 52.9261C45.4442 52.9261 52.5745 45.7957 52.5745 37C52.5745 28.2043 45.4442 21.0739 36.6484 21.0739C27.8527 21.0739 20.7223 28.2043 20.7223 37Z" fill="#DAA667"/>
<path id="Vector" d="M57.5401 27.7363L44.6118 15.4902C38.9962 10.1709 32.4773 10.3475 27.158 15.9632L14.9266 28.876C9.59264 34.5071 9.7693 41.026 15.3849 46.3453L28.2978 58.5767C33.9134 63.896 40.4323 63.7194 45.7516 58.1038L57.9977 45.1755C63.3324 39.5744 63.1558 33.0555 57.5401 27.7363ZM49.0272 40.3078L34.3987 48.5207C30.9189 50.4638 27.0027 46.8421 28.6937 43.2338L30.6388 39.0174C31.1786 37.8604 31.1566 36.4931 30.5403 35.3824L28.3543 31.2629C26.5012 27.7807 30.2293 23.9068 33.7799 25.6895L48.8465 33.0826C51.7874 34.5511 51.9005 38.7268 49.0272 40.3078Z" fill="#DAA667"/>
</g>
</g>
</g>
</svg>
