<svg width="44" height="44" viewBox="0 0 44 44" fill="none" xmlns="http://www.w3.org/2000/svg">
<rect x="0.2" y="0.2" width="43.6" height="43.6" rx="21.8" stroke="#A3A3A3" stroke-width="0.4"/>
<path d="M26.8901 25.9601C26.7001 25.9601 26.5001 25.8801 26.3601 25.7401L23.1701 22.5501C22.8801 22.2601 22.8801 21.7801 23.1701 21.4901L26.3901 18.2701C26.6201 18.0401 26.9701 17.9901 27.2601 18.1301L31.7501 20.3801C32.3701 20.6801 32.7601 21.3001 32.7601 22.0001C32.7601 22.7001 32.3701 23.3201 31.7501 23.6201L27.2401 25.8801C27.1201 25.9301 27.0001 25.9601 26.8901 25.9601ZM24.7601 22.0201L27.0301 24.2901L31.0601 22.2701C31.0601 22.2701 31.0601 22.2701 31.0701 22.2701C31.2201 22.2001 31.2401 22.0701 31.2401 22.0001C31.2401 21.9301 31.2201 21.8001 31.0701 21.7301L27.0601 19.7201L24.7601 22.0201Z" fill="#DAA667"/>
<path d="M13.07 32.75C12.74 32.75 12.4 32.66 12.11 32.47C11.57 32.14 11.25 31.56 11.25 30.92V13.06C11.25 12.43 11.57 11.85 12.11 11.51C12.65 11.18 13.31 11.14 13.88 11.43L27.25 18.12C27.47 18.23 27.62 18.43 27.65 18.67C27.68 18.91 27.61 19.15 27.44 19.32L14.64 32.12C14.58 32.18 14.52 32.22 14.44 32.26L13.86 32.55C13.62 32.69 13.34 32.75 13.07 32.75ZM13.07 12.75C13 12.75 12.94 12.78 12.9 12.8C12.84 12.83 12.75 12.92 12.75 13.07V30.93C12.75 31.09 12.84 31.17 12.9 31.2C12.96 31.24 13.07 31.28 13.22 31.21L13.68 30.98L25.65 19.01L13.21 12.79C13.16 12.76 13.11 12.75 13.07 12.75Z" fill="#DAA667"/>
<path d="M14.12 32.35C13.89 32.35 13.66 32.24 13.51 32.04C13.29 31.74 13.33 31.33 13.59 31.07L23.17 21.49C23.31 21.35 23.5 21.27 23.7 21.27C23.9 21.27 24.09 21.35 24.23 21.49L27.42 24.68C27.59 24.85 27.67 25.09 27.63 25.33C27.59 25.57 27.44 25.77 27.23 25.88L14.47 32.27C14.35 32.32 14.24 32.35 14.12 32.35ZM23.7 23.08L17.93 28.85L25.62 25L23.7 23.08Z" fill="#DAA667"/>
<path d="M23.6998 22.7701C23.5098 22.7701 23.3198 22.7001 23.1698 22.5501L13.5598 12.9401C13.2698 12.6501 13.2698 12.1701 13.5598 11.8801C13.8498 11.5901 14.3298 11.5901 14.6198 11.8801L24.2298 21.4901C24.5198 21.7801 24.5198 22.2601 24.2298 22.5501C24.0898 22.7001 23.8898 22.7701 23.6998 22.7701Z" fill="#DAA667"/>
<path d="M26.8998 25.9799C26.7198 25.9799 26.5298 25.9099 26.3898 25.7599L26.3598 25.7299C26.0698 25.4399 26.0698 24.9599 26.3698 24.6699C26.6698 24.3799 27.1398 24.3799 27.4298 24.6799C27.7198 24.9699 27.7298 25.4699 27.4398 25.7599C27.2798 25.9099 27.0898 25.9799 26.8998 25.9799Z" fill="#DAA667"/>
</svg>
