<svg width="44" height="44" viewBox="0 0 44 44" fill="none" xmlns="http://www.w3.org/2000/svg">
<rect x="0.2" y="0.2" width="43.6" height="43.6" rx="21.8" stroke="#A3A3A3" stroke-width="0.4"/>
<path d="M27 30.75H17C13.56 30.75 11.25 28.44 11.25 25V19C11.25 15.56 13.56 13.25 17 13.25H27C30.44 13.25 32.75 15.56 32.75 19V25C32.75 28.44 30.44 30.75 27 30.75ZM17 14.75C14.42 14.75 12.75 16.42 12.75 19V25C12.75 27.58 14.42 29.25 17 29.25H27C29.58 29.25 31.25 27.58 31.25 25V19C31.25 16.42 29.58 14.75 27 14.75H17Z" fill="#DAA667"/>
<path d="M20.5901 25.5302C20.3001 25.5302 20.0201 25.4602 19.7701 25.3202C19.1901 24.9902 18.8501 24.3202 18.8501 23.4902V20.5302C18.8501 19.7002 19.1801 19.0302 19.7701 18.7002C20.3501 18.3702 21.1001 18.4302 21.8101 18.8602L24.2802 20.3402C24.9602 20.7502 25.3501 21.3602 25.3501 22.0102C25.3501 22.6602 24.9602 23.2702 24.2802 23.6802L21.8101 25.1602C21.4001 25.4002 20.9801 25.5302 20.5901 25.5302ZM20.5901 19.9702C20.5501 19.9702 20.5201 19.9802 20.5001 19.9902C20.4301 20.0302 20.3501 20.2102 20.3501 20.5202V23.4802C20.3501 23.7802 20.4301 23.9602 20.5001 24.0102C20.5801 24.0502 20.7702 24.0302 21.0302 23.8702L23.5001 22.3902C23.7501 22.2402 23.8401 22.0902 23.8401 22.0002C23.8401 21.9102 23.7501 21.7702 23.5001 21.6102L21.0302 20.1302C20.8502 20.0202 20.6901 19.9702 20.5901 19.9702Z" fill="#DAA667"/>
</svg>
