<svg width="73" height="73" viewBox="0 0 73 73" fill="none" xmlns="http://www.w3.org/2000/svg">
<g id="icons" opacity="0.7">
<g id="vuesax/bold/route-square">
<g id="route-square">
<path id="Ellipse 214" d="M9.54932 37C9.54932 51.3594 21.1899 63 35.5493 63C49.9087 63 61.5493 51.3594 61.5493 37C61.5493 22.6406 49.9087 11 35.5493 11C21.1899 11 9.54932 22.6406 9.54932 37ZM51.4754 37C51.4754 45.7957 44.3451 52.9261 35.5493 52.9261C26.7536 52.9261 19.6232 45.7957 19.6232 37C19.6232 28.2043 26.7536 21.0739 35.5493 21.0739C44.3451 21.0739 51.4754 28.2043 51.4754 37Z" fill="#DFDFDF"/>
<path id="Vector" d="M14.6576 27.7363L27.5859 15.4902C33.2015 10.1709 39.7204 10.3475 45.0397 15.9632L57.2712 28.876C62.6051 34.5071 62.4284 41.026 56.8128 46.3453L43.9 58.5767C38.2843 63.896 31.7654 63.7194 26.4461 58.1038L14.2001 45.1755C8.86533 39.5744 9.04199 33.0555 14.6576 27.7363ZM23.1705 40.3078L37.7991 48.5207C41.2789 50.4638 45.195 46.8421 43.504 43.2338L41.559 39.0174C41.0191 37.8604 41.0412 36.4931 41.6575 35.3824L43.8435 31.2629C45.6965 27.7807 41.9685 23.9068 38.4178 25.6895L23.3513 33.0826C20.4104 34.5511 20.2972 38.7268 23.1705 40.3078Z" fill="#DFDFDF"/>
</g>
</g>
</g>
</svg>
